<svg width="150" height="284" viewBox="0 0 150 284" fill="none" xmlns="http://www.w3.org/2000/svg">
<line x1="75.3257" y1="145.702" x2="3.32568" y2="281.702" stroke="black" stroke-width="3"/>
<line x1="3" y1="281.5" x2="68" y2="281.5" stroke="black" stroke-width="3"/>
<line y1="-1.5" x2="153.883" y2="-1.5" transform="matrix(0.467888 0.883788 0.883788 -0.467888 76 145)" stroke="black" stroke-width="3"/>
<line y1="-1.5" x2="65" y2="-1.5" transform="matrix(-1 0 0 1 147 283)" stroke="black" stroke-width="3"/>
<path d="M2.53159 280.067L3.78449 283.026L0.987379 282.885L2.53159 280.067Z" fill="black"/>
<path d="M147.142 279.213L148.898 282.948L145.5 283L147.142 279.213Z" fill="#0E0D0D"/>
<path d="M75 143L76.7321 146.75H73.2679L75 143Z" fill="black"/>
<path d="M76 230L101.115 270.5H50.8853L76 230Z" fill="black"/>
<line x1="74.6043" y1="138.504" x2="147.56" y2="3.01391" stroke="black" stroke-width="3"/>
<line x1="147.884" y1="3.21804" x2="82.8859" y2="2.76043" stroke="black" stroke-width="3"/>
<line y1="-1.5" x2="153.883" y2="-1.5" transform="matrix(-0.461654 -0.88706 -0.88706 0.461654 73.9251 139.201)" stroke="black" stroke-width="3"/>
<line y1="-1.5" x2="65" y2="-1.5" transform="matrix(0.999975 0.00704024 0.00704024 -0.999975 3.89841 0.704285)" stroke="black" stroke-width="3"/>
<path d="M148.343 4.65385L147.111 1.68624L149.907 1.84698L148.343 4.65385Z" fill="black"/>
<path d="M3.72987 4.48989L2 0.742559L5.39837 0.714832L3.72987 4.48989Z" fill="#0E0D0D"/>
<path d="M74.911 141.208L73.2054 137.446L76.6694 137.47L74.911 141.208Z" fill="black"/>
<path d="M75.3641 109.285L60.4803 87.307L90.5558 87.5187L75.3641 109.285Z" fill="black"/>
</svg>
